<svg width="22" height="27" viewBox="0 0 22 27" fill="none" xmlns="http://www.w3.org/2000/svg">
<path d="M12.0086 25.3515L12.0086 4.5553L19.071 11.6177C19.1944 11.7439 19.3416 11.8443 19.504 11.9132C19.6665 11.9821 19.841 12.018 20.0175 12.019C20.194 12.02 20.3689 11.9859 20.5321 11.9188C20.6954 11.8517 20.8437 11.7529 20.9684 11.6281C21.0932 11.5033 21.192 11.355 21.2591 11.1918C21.3261 11.0285 21.3601 10.8536 21.3591 10.6772C21.3581 10.5007 21.3221 10.3262 21.2532 10.1637C21.1843 10.0012 21.0838 9.85405 20.9577 9.73067L11.6176 0.39066C11.3674 0.140521 11.0281 8.32599e-07 10.6743 8.05887e-07C10.3205 7.79176e-07 9.98117 0.140521 9.73096 0.39066L0.390949 9.73067C0.266837 9.85446 0.168409 10.0016 0.101318 10.1635C0.0342269 10.3254 -0.000204568 10.4991 2.13412e-06 10.6743C5.84536e-05 10.9382 0.0783433 11.1961 0.22496 11.4155C0.371578 11.6349 0.579944 11.8058 0.823718 11.9068C1.06749 12.0078 1.33573 12.0342 1.59452 11.9827C1.85331 11.9313 2.09103 11.8042 2.27763 11.6177L9.34001 4.5553L9.34001 25.3515C9.34001 25.7054 9.48059 26.0448 9.73081 26.295C9.98104 26.5452 10.3204 26.6858 10.6743 26.6858C11.0282 26.6858 11.3676 26.5452 11.6178 26.295C11.868 26.0448 12.0086 25.7054 12.0086 25.3515Z" fill="currentColor"/>
</svg>
