<svg width="18" height="14" viewBox="0 0 18 14" fill="none" xmlns="http://www.w3.org/2000/svg">
<path d="M0.874566 7.87111L14.5056 7.87111L9.87649 12.5002C9.79379 12.5811 9.72796 12.6776 9.68281 12.7841C9.63765 12.8905 9.61408 13.0049 9.61344 13.1206C9.6128 13.2363 9.63512 13.3509 9.6791 13.4579C9.72307 13.5649 9.78784 13.6621 9.86964 13.7439C9.95144 13.8257 10.0487 13.8904 10.1556 13.9344C10.2626 13.9783 10.3773 14.0006 10.493 14C10.6086 13.9993 10.723 13.9757 10.8295 13.9306C10.936 13.8854 11.0325 13.8195 11.1133 13.7368L17.2353 7.61486C17.3993 7.45086 17.4914 7.22845 17.4914 6.99654C17.4914 6.76464 17.3993 6.54223 17.2353 6.37822L11.1133 0.256251C11.0322 0.174901 10.9358 0.110386 10.8296 0.0664106C10.7235 0.0224353 10.6097 -0.000133031 10.4948 2.44145e-06C10.3219 3.93392e-05 10.1528 0.0513516 10.009 0.147453C9.86524 0.243554 9.75317 0.380129 9.68699 0.539912C9.62081 0.699696 9.60349 0.875513 9.63722 1.04514C9.67095 1.21476 9.75422 1.37058 9.87649 1.49289L14.5056 6.12197L0.874566 6.12197C0.642617 6.12197 0.420167 6.21411 0.256154 6.37813C0.0921405 6.54214 -1.18276e-06 6.76459 -1.22331e-06 6.99654C-1.26387e-06 7.22849 0.0921403 7.45094 0.256153 7.61495C0.420167 7.77897 0.642616 7.87111 0.874566 7.87111Z" fill="#FDFEFF"/>
</svg>
