<svg width="24" height="24" viewBox="0 0 24 24" fill="none" xmlns="http://www.w3.org/2000/svg">
<path d="M11.998 7.00205H12.008M15.4925 8.5144H15.5025M8.5275 8.5144H8.5375M6.99016 11.9999H7.00016M15.9963 15.9982H18.7011C19.1145 16.0042 19.5191 15.8794 19.8572 15.6415C20.1953 15.4036 20.4494 15.0648 20.5833 14.6737C20.9809 13.4004 21.0904 12.0546 20.9038 10.7338C20.7172 9.41295 20.2392 8.15014 19.5044 7.03681C18.7696 5.92348 17.7964 4.98749 16.6553 4.29662C15.5142 3.60575 14.2337 3.1773 12.9066 3.04229C11.5795 2.90728 10.239 3.06909 8.98214 3.51601C7.72528 3.96292 6.58354 4.68376 5.6396 5.62631C4.69566 6.56886 3.97314 7.70954 3.52437 8.96574C3.0756 10.2219 2.91181 11.5622 3.04486 12.8895C3.21846 14.4306 3.78318 15.9017 4.68539 17.1631C5.5876 18.4244 6.79732 19.4342 8.19964 20.0964C9.37064 20.679 10.6591 20.9867 11.967 20.996C12.2316 20.9983 12.494 20.9483 12.7393 20.849C12.9845 20.7497 13.2077 20.603 13.3962 20.4173C13.5847 20.2316 13.7347 20.0106 13.8376 19.7668C13.9406 19.5231 13.9944 19.2615 13.9961 18.9969V18.1403C13.9817 17.8671 14.0226 17.5938 14.1162 17.3367C14.2098 17.0796 14.3542 16.8441 14.541 16.6441C14.7277 16.4442 14.9528 16.2839 15.2028 16.1729C15.4529 16.0619 15.7227 16.0025 15.9963 15.9982Z" stroke="#FDFEFF" stroke-width="2" stroke-linecap="round" stroke-linejoin="round"/>
</svg>
