<svg width="60" height="60" viewBox="0 0 60 60" fill="none" xmlns="http://www.w3.org/2000/svg">
<path fill-rule="evenodd" clip-rule="evenodd" d="M28.8988 1.08712C28.0663 1.35712 27.5863 1.83712 27.3538 2.62087C27.2225 3.05962 27.2 4.07962 27.2 9.40462C27.2 16.4584 27.1925 16.3684 27.9125 17.0884C28.8763 18.0484 31.1263 18.0484 32.09 17.0884C32.81 16.3684 32.8025 16.4584 32.8025 9.40462C32.8025 2.57962 32.7913 2.45962 32.2363 1.79962C31.7713 1.24837 31.2725 1.06462 30.1513 1.03462C29.733 1.01093 29.3135 1.02851 28.8988 1.08712ZM10.325 8.49712C9.73251 8.76712 8.85876 9.62212 8.55501 10.2296C8.39874 10.5329 8.31348 10.8677 8.30568 11.2088C8.29789 11.5499 8.36776 11.8883 8.51001 12.1984C8.78751 12.8171 17.5025 21.5621 18.1888 21.9109C19.1638 22.4109 20.155 22.1684 21.1625 21.1834C22.1525 20.2159 22.415 19.1659 21.9125 18.1871C21.5638 17.5009 12.8188 8.78587 12.2 8.50837C11.9042 8.38076 11.5858 8.31399 11.2637 8.31206C10.9415 8.31013 10.6223 8.37306 10.325 8.49712ZM48.2 8.55712C47.7388 8.77087 46.9513 9.50962 43.1938 13.2784C39.74 16.7396 38.6863 17.8571 38.5175 18.2246C38.378 18.5295 38.3062 18.861 38.3068 19.1963C38.3074 19.5316 38.3806 19.8628 38.5213 20.1671C38.7838 20.7296 39.6463 21.6146 40.2275 21.9184C40.8163 22.2259 41.69 22.2221 42.3013 21.9109C42.9275 21.5884 51.59 12.9259 51.9125 12.2996C52.0656 11.9771 52.146 11.6248 52.1479 11.2677C52.1499 10.9107 52.0733 10.5576 51.9238 10.2334C51.5087 9.53937 50.9225 8.9635 50.2213 8.56087C49.9108 8.39355 49.5638 8.30564 49.2111 8.30499C48.8584 8.30433 48.5111 8.39095 48.2 8.55712ZM2.62251 27.3446C1.51751 27.6921 0.966258 28.5759 0.968758 29.9959C0.972508 31.4471 1.51251 32.3171 2.61876 32.6471C3.06126 32.7784 4.04751 32.8009 9.40626 32.8009C14.99 32.8009 15.7363 32.7821 16.1938 32.6321C16.5301 32.5222 16.8358 32.3346 17.086 32.0844C17.3362 31.8342 17.5239 31.5285 17.6338 31.1921C17.9563 30.1984 17.795 28.7884 17.2813 28.0909C17.0765 27.8657 16.8341 27.678 16.565 27.5359L16.0513 27.2509L9.55251 27.2284C4.32126 27.2134 2.96751 27.2359 2.62251 27.3446ZM44.045 27.2921C43.5382 27.4324 43.08 27.7101 42.7213 28.0946C42.2075 28.7884 42.0463 30.1984 42.3688 31.1921C42.5863 31.8671 43.1338 32.4146 43.8088 32.6321C44.2663 32.7821 45.0125 32.8009 50.5963 32.8009C55.955 32.8009 56.9413 32.7784 57.3838 32.6471C58.49 32.3171 59.03 31.4471 59.0338 29.9959C59.0338 28.5521 58.4825 27.6859 57.3388 27.3409C56.9525 27.2246 55.7413 27.2021 50.6113 27.2096C47.1688 27.2171 44.2138 27.2546 44.045 27.2921ZM18.2 38.5571C17.7388 38.7709 16.9513 39.5096 13.1938 43.2784C9.74001 46.7396 8.68626 47.8571 8.51751 48.2246C8.37803 48.5295 8.30615 48.861 8.3068 49.1963C8.30745 49.5316 8.38061 49.8628 8.52126 50.1671C8.78376 50.7296 9.64626 51.6146 10.2275 51.9184C10.8163 52.2259 11.69 52.2221 12.3013 51.9109C12.9275 51.5884 21.59 42.9259 21.9125 42.2996C22.0656 41.9771 22.146 41.6248 22.1479 41.2677C22.1499 40.9107 22.0733 40.5576 21.9238 40.2334C21.5087 39.5394 20.9225 38.9635 20.2213 38.5609C19.9108 38.3935 19.5638 38.3056 19.2111 38.305C18.8584 38.3043 18.5111 38.3909 18.2 38.5571ZM40.325 38.4971C39.7325 38.7671 38.8588 39.6221 38.555 40.2296C38.3987 40.5329 38.3135 40.8677 38.3057 41.2088C38.2979 41.5499 38.3678 41.8883 38.51 42.1984C38.7875 42.8171 47.5025 51.5621 48.1888 51.9109C49.1638 52.4109 50.155 52.1684 51.1625 51.1834C52.1525 50.2159 52.415 49.1659 51.9125 48.1871C51.5638 47.5009 42.8188 38.7859 42.2 38.5084C41.9042 38.3808 41.5858 38.314 41.2637 38.3121C40.9415 38.3101 40.6223 38.3731 40.325 38.4971ZM29.045 42.2884C28.5385 42.4315 28.0808 42.7102 27.7213 43.0946C27.2038 43.7921 27.2 43.8409 27.2 50.5834C27.2 55.9534 27.2225 56.9396 27.3538 57.3821C27.6788 58.4821 28.5613 59.0309 30.0013 59.0284C31.4413 59.0334 32.3238 58.4846 32.6488 57.3821C32.8813 56.5871 32.8775 44.5309 32.6413 43.8371C32.5682 43.5576 32.435 43.2974 32.2511 43.0746C32.0672 42.8518 31.8369 42.6718 31.5763 42.5471C31.1638 42.3221 30.9238 42.2659 30.215 42.2396C29.8244 42.2151 29.4323 42.2315 29.045 42.2884Z" fill="#0EB8D2"/>
</svg>
