<svg width="19" height="24" viewBox="0 0 19 24" fill="none" xmlns="http://www.w3.org/2000/svg">
<path d="M4.39286 9.25V5.60714C4.39286 2.92357 6.56643 0.75 9.25 0.75C11.9336 0.75 14.1071 2.92357 14.1071 5.60714V9.25M9.25 15.3214C9.57205 15.3214 9.88091 15.1935 10.1086 14.9658C10.3364 14.738 10.4643 14.4292 10.4643 14.1071C10.4643 13.7851 10.3364 13.4762 10.1086 13.2485C9.88091 13.0208 9.57205 12.8929 9.25 12.8929C8.92795 12.8929 8.61909 13.0208 8.39137 13.2485C8.16365 13.4762 8.03571 13.7851 8.03571 14.1071C8.03571 14.4292 8.16365 14.738 8.39137 14.9658C8.61909 15.1935 8.92795 15.3214 9.25 15.3214ZM9.25 15.3214V18.9643M2.69286 9.25H15.8071C16.8757 9.25 17.75 10.1243 17.75 11.1929V19.6929C17.75 21.2957 16.4386 22.6071 14.8357 22.6071H3.66429C2.06143 22.6071 0.75 21.2957 0.75 19.6929V11.1929C0.75 10.1243 1.62429 9.25 2.69286 9.25Z" stroke="#FDFEFF" stroke-width="1.5" stroke-miterlimit="10" stroke-linecap="round" stroke-linejoin="round"/>
</svg>
