<svg width="122" height="29" viewBox="0 0 122 29" fill="none" xmlns="http://www.w3.org/2000/svg" aria-hidden="true">
  <path d="M106.309 0V28.9489H102.208V13.9299L99.1272 28.9489H95.0257L91.9368 13.9299L91.9453 28.9489H87.8438V0H91.9453L97.0764 19.6567L102.208 0H106.309Z" fill="#FEFFFF"/>
  <path d="M113.305 4.10153V12.4237H121.269V16.5252H113.305V24.8474H121.269V28.9489H109.203V0H121.269V4.10153H113.305Z" fill="#FEFFFF"/>
  <path d="M61.8792 20.6014V20.6354C62.8068 31.9699 47.0729 31.5955 48.0004 20.6014H52.1019C50.7915 25.9793 58.2372 26.2687 57.7607 21.3502C57.7777 16.0574 48.8088 14.1598 48.1025 8.39043C46.7495 -2.70581 62.8578 -2.91855 61.8792 8.39043H57.7607C58.9945 3.07206 51.6765 2.61255 52.1785 7.67564C52.5359 11.2751 61.8707 14.1087 61.8792 20.5929V20.6014Z" fill="#FEFFFF"/>
  <path d="M14.3298 0V4.10153H9.21567V28.9404H5.11414V4.10153H0V0H14.3298Z" fill="#FEFFFF"/>
  <path d="M79.154 0V4.10153H74.0399V28.9404H69.9384V4.10153H64.8242V0H79.154Z" fill="#FEFFFF"/>
  <path d="M30.1137 28.9404C30.1137 28.4639 30.1137 27.8597 30.1137 26.5323V16.8911C30.1137 15.5552 29.2627 14.4745 27.9353 14.4745L26.7269 14.4489C28.7267 14.4489 30.1137 12.8492 30.1137 10.8495V3.61649C30.1137 1.61678 28.4969 0 26.4972 0H17.2305V28.9404H21.332V16.5167H23.604C24.94 16.5167 26.0122 17.5889 26.0122 18.9249V28.9404H30.1137ZM21.3235 4.10153H23.604C24.923 4.10153 26.0036 5.17371 26.0036 6.50117V10.007C26.0036 11.343 24.9144 12.4237 23.587 12.4237H21.3235V4.10153Z" fill="#FEFFFF"/>
  <path d="M45.0649 0V23.2817C45.0054 27.23 42.6227 28.9404 39.0403 28.9404C35.4578 28.9404 33.0156 26.4982 33.0156 23.2987V0H37.1172V22.9158C37.1172 23.9795 37.9851 24.8474 39.0488 24.8474C40.1125 24.8474 40.9804 23.9795 40.9804 22.9158V0H45.0819H45.0649Z" fill="#FEFFFF"/>
</svg>
