<svg width="24" height="24" viewBox="0 0 24 24" fill="none" xmlns="http://www.w3.org/2000/svg">
<path d="M9.71261 20H3.99833C3.69522 20 3.40453 19.8796 3.1902 19.6653C2.97588 19.4509 2.85547 19.1602 2.85547 18.8571V17.7143C2.85547 16.805 3.21669 15.9329 3.85967 15.2899C4.50266 14.6469 5.37473 14.2857 6.28404 14.2857H8.56975M19.9983 15.4286C19.9983 16.3379 19.6371 17.21 18.9941 17.8529M19.9983 15.4286C19.9983 14.5193 19.6371 13.6472 18.9941 13.0042M19.9983 15.4286H21.1412M18.9941 17.8529C18.3511 18.4959 17.4791 18.8571 16.5698 18.8571M18.9941 17.8529L19.8018 18.6606M16.5698 18.8571C15.6604 18.8571 14.7884 18.4959 14.1454 17.8529M16.5698 18.8571V20M18.9941 13.0042C18.3511 12.3612 17.4791 12 16.5698 12M18.9941 13.0042L19.8018 12.1966M16.5698 12C15.6604 12 14.7884 12.3612 14.1454 13.0042M16.5698 12V10.8571M14.1454 17.8529C13.5024 17.21 13.1412 16.3379 13.1412 15.4286M14.1454 17.8529L13.3378 18.6606M13.1412 15.4286C13.1412 14.5193 13.5024 13.6472 14.1454 13.0042M13.1412 15.4286H11.9983M14.1454 13.0042L13.3378 12.1966M11.9983 7.42857C11.9983 8.33789 11.6371 9.20996 10.9941 9.85294C10.3511 10.4959 9.47907 10.8571 8.56975 10.8571C7.66044 10.8571 6.78837 10.4959 6.14539 9.85294C5.50241 9.20996 5.14118 8.33789 5.14118 7.42857C5.14118 6.51926 5.50241 5.64719 6.14539 5.00421C6.78837 4.36122 7.66044 4 8.56975 4C9.47907 4 10.3511 4.36122 10.9941 5.00421C11.6371 5.64719 11.9983 6.51926 11.9983 7.42857Z" stroke="#FDFEFF" stroke-width="2" stroke-linecap="square" stroke-linejoin="round"/>
</svg>
