<svg width="144" height="146" viewBox="0 0 144 146" fill="none" xmlns="http://www.w3.org/2000/svg">
<g clip-path="url(#clip0_990_29819)">
<path d="M144 0H0V146H144V0Z" fill="#1A1A1A"/>
<path d="M54.6179 10.0703H49.6523V15.1048H54.6179V10.0703Z" fill="white"/>
<path d="M59.5866 10.0703H54.6211V15.1048H59.5866V10.0703Z" fill="white"/>
<path d="M79.446 10.0703H74.4805V15.1048H79.446V10.0703Z" fill="white"/>
<path d="M54.6179 15.1016H49.6523V20.136H54.6179V15.1016Z" fill="white"/>
<path d="M59.5866 15.1016H54.6211V20.136H59.5866V15.1016Z" fill="white"/>
<path d="M64.5515 15.1016H59.5859V20.136H64.5515V15.1016Z" fill="white"/>
<path d="M79.446 15.1016H74.4805V20.136H79.446V15.1016Z" fill="white"/>
<path d="M94.3444 15.1016H89.3789V20.136H94.3444V15.1016Z" fill="white"/>
<path d="M54.6179 20.1406H49.6523V25.1751H54.6179V20.1406Z" fill="white"/>
<path d="M79.446 20.1406H74.4805V25.1751H79.446V20.1406Z" fill="white"/>
<path d="M94.3444 20.1406H89.3789V25.1751H94.3444V20.1406Z" fill="white"/>
<path d="M54.6179 30.2109H49.6523V35.2454H54.6179V30.2109Z" fill="white"/>
<path d="M69.5163 30.2109H64.5508V35.2454H69.5163V30.2109Z" fill="white"/>
<path d="M74.4811 30.2109H69.5156V35.2454H74.4811V30.2109Z" fill="white"/>
<path d="M79.446 30.2109H74.4805V35.2454H79.446V30.2109Z" fill="white"/>
<path d="M84.4108 30.2109H79.4453V35.2454H84.4108V30.2109Z" fill="white"/>
<path d="M94.3444 30.2109H89.3789V35.2454H94.3444V30.2109Z" fill="white"/>
<path d="M69.5163 35.2422H64.5508V40.2767H69.5163V35.2422Z" fill="white"/>
<path d="M84.4108 35.2422H79.4453V40.2767H84.4108V35.2422Z" fill="white"/>
<path d="M54.6179 40.2734H49.6523V45.3079H54.6179V40.2734Z" fill="white"/>
<path d="M64.5515 40.2734H59.5859V45.3079H64.5515V40.2734Z" fill="white"/>
<path d="M74.4811 40.2734H69.5156V45.3079H74.4811V40.2734Z" fill="white"/>
<path d="M84.4108 40.2734H79.4453V45.3079H84.4108V40.2734Z" fill="white"/>
<path d="M94.3444 40.2734H89.3789V45.3079H94.3444V40.2734Z" fill="white"/>
<path d="M59.5866 45.3125H54.6211V50.347H59.5866V45.3125Z" fill="white"/>
<path d="M64.5515 45.3125H59.5859V50.347H64.5515V45.3125Z" fill="white"/>
<path d="M69.5163 45.3125H64.5508V50.347H69.5163V45.3125Z" fill="white"/>
<path d="M79.446 45.3125H74.4805V50.347H79.446V45.3125Z" fill="white"/>
<path d="M94.3444 45.3125H89.3789V50.347H94.3444V45.3125Z" fill="white"/>
<path d="M14.8952 50.3438H9.92969V55.3782H14.8952V50.3438Z" fill="white"/>
<path d="M29.7936 50.3438H24.8281V55.3782H29.7936V50.3438Z" fill="white"/>
<path d="M34.7585 50.3438H29.793V55.3782H34.7585V50.3438Z" fill="white"/>
<path d="M39.7233 50.3438H34.7578V55.3782H39.7233V50.3438Z" fill="white"/>
<path d="M44.6882 50.3438H39.7227V55.3782H44.6882V50.3438Z" fill="white"/>
<path d="M49.653 50.3438H44.6875V55.3782H49.653V50.3438Z" fill="white"/>
<path d="M54.6179 50.3438H49.6523V55.3782H54.6179V50.3438Z" fill="white"/>
<path d="M59.5866 50.3438H54.6211V55.3782H59.5866V50.3438Z" fill="white"/>
<path d="M69.5163 50.3438H64.5508V55.3782H69.5163V50.3438Z" fill="white"/>
<path d="M74.4811 50.3438H69.5156V55.3782H74.4811V50.3438Z" fill="white"/>
<path d="M84.4108 50.3438H79.4453V55.3782H84.4108V50.3438Z" fill="white"/>
<path d="M89.3796 50.3438H84.4141V55.3782H89.3796V50.3438Z" fill="white"/>
<path d="M99.3093 50.3438H94.3438V55.3782H99.3093V50.3438Z" fill="white"/>
<path d="M114.204 50.3438H109.238V55.3782H114.204V50.3438Z" fill="white"/>
<path d="M124.137 50.3438H119.172V55.3782H124.137V50.3438Z" fill="white"/>
<path d="M129.102 50.3438H124.137V55.3782H129.102V50.3438Z" fill="white"/>
<path d="M134.067 50.3438H129.102V55.3782H134.067V50.3438Z" fill="white"/>
<path d="M14.8952 55.3828H9.92969V60.4173H14.8952V55.3828Z" fill="white"/>
<path d="M34.7585 55.3828H29.793V60.4173H34.7585V55.3828Z" fill="white"/>
<path d="M54.6179 55.3828H49.6523V60.4173H54.6179V55.3828Z" fill="white"/>
<path d="M59.5866 55.3828H54.6211V60.4173H59.5866V55.3828Z" fill="white"/>
<path d="M64.5515 55.3828H59.5859V60.4173H64.5515V55.3828Z" fill="white"/>
<path d="M74.4811 55.3828H69.5156V60.4173H74.4811V55.3828Z" fill="white"/>
<path d="M84.4108 55.3828H79.4453V60.4173H84.4108V55.3828Z" fill="white"/>
<path d="M89.3796 55.3828H84.4141V60.4173H89.3796V55.3828Z" fill="white"/>
<path d="M114.204 55.3828H109.238V60.4173H114.204V55.3828Z" fill="white"/>
<path d="M119.173 55.3828H114.207V60.4173H119.173V55.3828Z" fill="white"/>
<path d="M124.137 55.3828H119.172V60.4173H124.137V55.3828Z" fill="white"/>
<path d="M129.102 55.3828H124.137V60.4173H129.102V55.3828Z" fill="white"/>
<path d="M24.8249 60.4141H19.8594V65.4485H24.8249V60.4141Z" fill="white"/>
<path d="M34.7585 60.4141H29.793V65.4485H34.7585V60.4141Z" fill="white"/>
<path d="M44.6882 60.4141H39.7227V65.4485H44.6882V60.4141Z" fill="white"/>
<path d="M49.653 60.4141H44.6875V65.4485H49.653V60.4141Z" fill="white"/>
<path d="M59.5866 60.4141H54.6211V65.4485H59.5866V60.4141Z" fill="white"/>
<path d="M89.3796 60.4141H84.4141V65.4485H89.3796V60.4141Z" fill="white"/>
<path d="M114.204 60.4141H109.238V65.4485H114.204V60.4141Z" fill="white"/>
<path d="M119.173 60.4141H114.207V65.4485H119.173V60.4141Z" fill="white"/>
<path d="M134.067 60.4141H129.102V65.4485H134.067V60.4141Z" fill="white"/>
<path d="M14.8952 65.4531H9.92969V70.4876H14.8952V65.4531Z" fill="white"/>
<path d="M19.86 65.4531H14.8945V70.4876H19.86V65.4531Z" fill="white"/>
<path d="M24.8249 65.4531H19.8594V70.4876H24.8249V65.4531Z" fill="white"/>
<path d="M34.7585 65.4531H29.793V70.4876H34.7585V65.4531Z" fill="white"/>
<path d="M84.4108 65.4531H79.4453V70.4876H84.4108V65.4531Z" fill="white"/>
<path d="M89.3796 65.4531H84.4141V70.4876H89.3796V65.4531Z" fill="white"/>
<path d="M94.3444 65.4531H89.3789V70.4876H94.3444V65.4531Z" fill="white"/>
<path d="M99.3093 65.4531H94.3438V70.4876H99.3093V65.4531Z" fill="white"/>
<path d="M109.239 65.4531H104.273V70.4876H109.239V65.4531Z" fill="white"/>
<path d="M119.173 65.4531H114.207V70.4876H119.173V65.4531Z" fill="white"/>
<path d="M124.137 65.4531H119.172V70.4876H124.137V65.4531Z" fill="white"/>
<path d="M129.102 65.4531H124.137V70.4876H129.102V65.4531Z" fill="white"/>
<path d="M134.067 65.4531H129.102V70.4876H134.067V65.4531Z" fill="white"/>
<path d="M14.8952 70.4844H9.92969V75.5189H14.8952V70.4844Z" fill="white"/>
<path d="M19.86 70.4844H14.8945V75.5189H19.86V70.4844Z" fill="white"/>
<path d="M29.7936 70.4844H24.8281V75.5189H29.7936V70.4844Z" fill="white"/>
<path d="M34.7585 70.4844H29.793V75.5189H34.7585V70.4844Z" fill="white"/>
<path d="M44.6882 70.4844H39.7227V75.5189H44.6882V70.4844Z" fill="white"/>
<path d="M59.5866 70.4844H54.6211V75.5189H59.5866V70.4844Z" fill="white"/>
<path d="M64.5515 70.4844H59.5859V75.5189H64.5515V70.4844Z" fill="white"/>
<path d="M74.4811 70.4844H69.5156V75.5189H74.4811V70.4844Z" fill="white"/>
<path d="M79.446 70.4844H74.4805V75.5189H79.446V70.4844Z" fill="white"/>
<path d="M89.3796 70.4844H84.4141V75.5189H89.3796V70.4844Z" fill="white"/>
<path d="M104.274 70.4844H99.3086V75.5189H104.274V70.4844Z" fill="white"/>
<path d="M134.067 70.4844H129.102V75.5189H134.067V70.4844Z" fill="white"/>
<path d="M14.8952 75.5156H9.92969V80.5501H14.8952V75.5156Z" fill="white"/>
<path d="M29.7936 75.5156H24.8281V80.5501H29.7936V75.5156Z" fill="white"/>
<path d="M49.653 75.5156H44.6875V80.5501H49.653V75.5156Z" fill="white"/>
<path d="M54.6179 75.5156H49.6523V80.5501H54.6179V75.5156Z" fill="white"/>
<path d="M59.5866 75.5156H54.6211V80.5501H59.5866V75.5156Z" fill="white"/>
<path d="M74.4811 75.5156H69.5156V80.5501H74.4811V75.5156Z" fill="white"/>
<path d="M79.446 75.5156H74.4805V80.5501H79.446V75.5156Z" fill="white"/>
<path d="M89.3796 75.5156H84.4141V80.5501H89.3796V75.5156Z" fill="white"/>
<path d="M94.3444 75.5156H89.3789V80.5501H94.3444V75.5156Z" fill="white"/>
<path d="M114.204 75.5156H109.238V80.5501H114.204V75.5156Z" fill="white"/>
<path d="M129.102 75.5156H124.137V80.5501H129.102V75.5156Z" fill="white"/>
<path d="M14.8952 80.5547H9.92969V85.5892H14.8952V80.5547Z" fill="white"/>
<path d="M19.86 80.5547H14.8945V85.5892H19.86V80.5547Z" fill="white"/>
<path d="M24.8249 80.5547H19.8594V85.5892H24.8249V80.5547Z" fill="white"/>
<path d="M39.7233 80.5547H34.7578V85.5892H39.7233V80.5547Z" fill="white"/>
<path d="M44.6882 80.5547H39.7227V85.5892H44.6882V80.5547Z" fill="white"/>
<path d="M49.653 80.5547H44.6875V85.5892H49.653V80.5547Z" fill="white"/>
<path d="M54.6179 80.5547H49.6523V85.5892H54.6179V80.5547Z" fill="white"/>
<path d="M74.4811 80.5547H69.5156V85.5892H74.4811V80.5547Z" fill="white"/>
<path d="M89.3796 80.5547H84.4141V85.5892H89.3796V80.5547Z" fill="white"/>
<path d="M94.3444 80.5547H89.3789V85.5892H94.3444V80.5547Z" fill="white"/>
<path d="M99.3093 80.5547H94.3438V85.5892H99.3093V80.5547Z" fill="white"/>
<path d="M114.204 80.5547H109.238V85.5892H114.204V80.5547Z" fill="white"/>
<path d="M119.173 80.5547H114.207V85.5892H119.173V80.5547Z" fill="white"/>
<path d="M124.137 80.5547H119.172V85.5892H124.137V80.5547Z" fill="white"/>
<path d="M129.102 80.5547H124.137V85.5892H129.102V80.5547Z" fill="white"/>
<path d="M134.067 80.5547H129.102V85.5892H134.067V80.5547Z" fill="white"/>
<path d="M14.8952 85.5859H9.92969V90.6204H14.8952V85.5859Z" fill="white"/>
<path d="M24.8249 85.5859H19.8594V90.6204H24.8249V85.5859Z" fill="white"/>
<path d="M39.7233 85.5859H34.7578V90.6204H39.7233V85.5859Z" fill="white"/>
<path d="M49.653 85.5859H44.6875V90.6204H49.653V85.5859Z" fill="white"/>
<path d="M64.5515 85.5859H59.5859V90.6204H64.5515V85.5859Z" fill="white"/>
<path d="M84.4108 85.5859H79.4453V90.6204H84.4108V85.5859Z" fill="white"/>
<path d="M99.3093 85.5859H94.3438V90.6204H99.3093V85.5859Z" fill="white"/>
<path d="M104.274 85.5859H99.3086V90.6204H104.274V85.5859Z" fill="white"/>
<path d="M109.239 85.5859H104.273V90.6204H109.239V85.5859Z" fill="white"/>
<path d="M119.173 85.5859H114.207V90.6204H119.173V85.5859Z" fill="white"/>
<path d="M124.137 85.5859H119.172V90.6204H124.137V85.5859Z" fill="white"/>
<path d="M134.067 85.5859H129.102V90.6204H134.067V85.5859Z" fill="white"/>
<path d="M14.8952 90.625H9.92969V95.6595H14.8952V90.625Z" fill="white"/>
<path d="M29.7936 90.625H24.8281V95.6595H29.7936V90.625Z" fill="white"/>
<path d="M34.7585 90.625H29.793V95.6595H34.7585V90.625Z" fill="white"/>
<path d="M39.7233 90.625H34.7578V95.6595H39.7233V90.625Z" fill="white"/>
<path d="M44.6882 90.625H39.7227V95.6595H44.6882V90.625Z" fill="white"/>
<path d="M54.6179 90.625H49.6523V95.6595H54.6179V90.625Z" fill="white"/>
<path d="M64.5515 90.625H59.5859V95.6595H64.5515V90.625Z" fill="white"/>
<path d="M69.5163 90.625H64.5508V95.6595H69.5163V90.625Z" fill="white"/>
<path d="M89.3796 90.625H84.4141V95.6595H89.3796V90.625Z" fill="white"/>
<path d="M94.3444 90.625H89.3789V95.6595H94.3444V90.625Z" fill="white"/>
<path d="M99.3093 90.625H94.3438V95.6595H99.3093V90.625Z" fill="white"/>
<path d="M104.274 90.625H99.3086V95.6595H104.274V90.625Z" fill="white"/>
<path d="M109.239 90.625H104.273V95.6595H109.239V90.625Z" fill="white"/>
<path d="M114.204 90.625H109.238V95.6595H114.204V90.625Z" fill="white"/>
<path d="M124.137 90.625H119.172V95.6595H124.137V90.625Z" fill="white"/>
<path d="M129.102 90.625H124.137V95.6595H129.102V90.625Z" fill="white"/>
<path d="M54.6179 95.6562H49.6523V100.691H54.6179V95.6562Z" fill="white"/>
<path d="M64.5515 95.6562H59.5859V100.691H64.5515V95.6562Z" fill="white"/>
<path d="M84.4108 95.6562H79.4453V100.691H84.4108V95.6562Z" fill="white"/>
<path d="M89.3796 95.6562H84.4141V100.691H89.3796V95.6562Z" fill="white"/>
<path d="M94.3444 95.6562H89.3789V100.691H94.3444V95.6562Z" fill="white"/>
<path d="M114.204 95.6562H109.238V100.691H114.204V95.6562Z" fill="white"/>
<path d="M124.137 95.6562H119.172V100.691H124.137V95.6562Z" fill="white"/>
<path d="M129.102 95.6562H124.137V100.691H129.102V95.6562Z" fill="white"/>
<path d="M54.6179 100.688H49.6523V105.722H54.6179V100.688Z" fill="white"/>
<path d="M69.5163 100.688H64.5508V105.722H69.5163V100.688Z" fill="white"/>
<path d="M79.446 100.688H74.4805V105.722H79.446V100.688Z" fill="white"/>
<path d="M89.3796 100.688H84.4141V105.722H89.3796V100.688Z" fill="white"/>
<path d="M94.3444 100.688H89.3789V105.722H94.3444V100.688Z" fill="white"/>
<path d="M104.274 100.688H99.3086V105.722H104.274V100.688Z" fill="white"/>
<path d="M114.204 100.688H109.238V105.722H114.204V100.688Z" fill="white"/>
<path d="M134.067 100.688H129.102V105.722H134.067V100.688Z" fill="white"/>
<path d="M54.6179 105.727H49.6523V110.761H54.6179V105.727Z" fill="white"/>
<path d="M59.5866 105.727H54.6211V110.761H59.5866V105.727Z" fill="white"/>
<path d="M64.5515 105.727H59.5859V110.761H64.5515V105.727Z" fill="white"/>
<path d="M69.5163 105.727H64.5508V110.761H69.5163V105.727Z" fill="white"/>
<path d="M79.446 105.727H74.4805V110.761H79.446V105.727Z" fill="white"/>
<path d="M89.3796 105.727H84.4141V110.761H89.3796V105.727Z" fill="white"/>
<path d="M94.3444 105.727H89.3789V110.761H94.3444V105.727Z" fill="white"/>
<path d="M114.204 105.727H109.238V110.761H114.204V105.727Z" fill="white"/>
<path d="M54.6179 110.758H49.6523V115.792H54.6179V110.758Z" fill="white"/>
<path d="M59.5866 110.758H54.6211V115.792H59.5866V110.758Z" fill="white"/>
<path d="M64.5515 110.758H59.5859V115.792H64.5515V110.758Z" fill="white"/>
<path d="M69.5163 110.758H64.5508V115.792H69.5163V110.758Z" fill="white"/>
<path d="M74.4811 110.758H69.5156V115.792H74.4811V110.758Z" fill="white"/>
<path d="M79.446 110.758H74.4805V115.792H79.446V110.758Z" fill="white"/>
<path d="M84.4108 110.758H79.4453V115.792H84.4108V110.758Z" fill="white"/>
<path d="M89.3796 110.758H84.4141V115.792H89.3796V110.758Z" fill="white"/>
<path d="M94.3444 110.758H89.3789V115.792H94.3444V110.758Z" fill="white"/>
<path d="M99.3093 110.758H94.3438V115.792H99.3093V110.758Z" fill="white"/>
<path d="M104.274 110.758H99.3086V115.792H104.274V110.758Z" fill="white"/>
<path d="M109.239 110.758H104.273V115.792H109.239V110.758Z" fill="white"/>
<path d="M114.204 110.758H109.238V115.792H114.204V110.758Z" fill="white"/>
<path d="M54.6179 115.797H49.6523V120.831H54.6179V115.797Z" fill="white"/>
<path d="M59.5866 115.797H54.6211V120.831H59.5866V115.797Z" fill="white"/>
<path d="M64.5515 115.797H59.5859V120.831H64.5515V115.797Z" fill="white"/>
<path d="M69.5163 115.797H64.5508V120.831H69.5163V115.797Z" fill="white"/>
<path d="M79.446 115.797H74.4805V120.831H79.446V115.797Z" fill="white"/>
<path d="M89.3796 115.797H84.4141V120.831H89.3796V115.797Z" fill="white"/>
<path d="M99.3093 115.797H94.3438V120.831H99.3093V115.797Z" fill="white"/>
<path d="M104.274 115.797H99.3086V120.831H104.274V115.797Z" fill="white"/>
<path d="M129.102 115.797H124.137V120.831H129.102V115.797Z" fill="white"/>
<path d="M134.067 115.797H129.102V120.831H134.067V115.797Z" fill="white"/>
<path d="M64.5515 120.828H59.5859V125.863H64.5515V120.828Z" fill="white"/>
<path d="M69.5163 120.828H64.5508V125.863H69.5163V120.828Z" fill="white"/>
<path d="M74.4811 120.828H69.5156V125.863H74.4811V120.828Z" fill="white"/>
<path d="M79.446 120.828H74.4805V125.863H79.446V120.828Z" fill="white"/>
<path d="M94.3444 120.828H89.3789V125.863H94.3444V120.828Z" fill="white"/>
<path d="M99.3093 120.828H94.3438V125.863H99.3093V120.828Z" fill="white"/>
<path d="M114.204 120.828H109.238V125.863H114.204V120.828Z" fill="white"/>
<path d="M119.173 120.828H114.207V125.863H119.173V120.828Z" fill="white"/>
<path d="M124.137 120.828H119.172V125.863H124.137V120.828Z" fill="white"/>
<path d="M129.102 120.828H124.137V125.863H129.102V120.828Z" fill="white"/>
<path d="M134.067 120.828H129.102V125.863H134.067V120.828Z" fill="white"/>
<path d="M59.5866 125.867H54.6211V130.902H59.5866V125.867Z" fill="white"/>
<path d="M74.4811 125.867H69.5156V130.902H74.4811V125.867Z" fill="white"/>
<path d="M84.4108 125.867H79.4453V130.902H84.4108V125.867Z" fill="white"/>
<path d="M104.274 125.867H99.3086V130.902H104.274V125.867Z" fill="white"/>
<path d="M109.239 125.867H104.273V130.902H109.239V125.867Z" fill="white"/>
<path d="M114.204 125.867H109.238V130.902H114.204V125.867Z" fill="white"/>
<path d="M124.137 125.867H119.172V130.902H124.137V125.867Z" fill="white"/>
<path d="M129.102 125.867H124.137V130.902H129.102V125.867Z" fill="white"/>
<path d="M134.067 125.867H129.102V130.902H134.067V125.867Z" fill="white"/>
<path d="M54.6179 130.898H49.6523V135.933H54.6179V130.898Z" fill="white"/>
<path d="M59.5866 130.898H54.6211V135.933H59.5866V130.898Z" fill="white"/>
<path d="M69.5163 130.898H64.5508V135.933H69.5163V130.898Z" fill="white"/>
<path d="M74.4811 130.898H69.5156V135.933H74.4811V130.898Z" fill="white"/>
<path d="M89.3796 130.898H84.4141V135.933H89.3796V130.898Z" fill="white"/>
<path d="M94.3444 130.898H89.3789V135.933H94.3444V130.898Z" fill="white"/>
<path d="M104.274 130.898H99.3086V135.933H104.274V130.898Z" fill="white"/>
<path d="M119.173 130.898H114.207V135.933H119.173V130.898Z" fill="white"/>
<path d="M134.067 130.898H129.102V135.933H134.067V130.898Z" fill="white"/>
<path d="M39.4745 10.0703H15.1435H9.92969V15.3565V40.0255V45.3117H15.1435H39.4745H44.6883V40.0255V15.3565V10.0703H39.4745ZM39.4745 40.0255H15.1435V15.3565H39.4745V40.0255Z" fill="white"/>
<path d="M128.853 10.0703H104.522H99.3086V15.3565V40.0255V45.3117H104.522H128.853H134.067V40.0255V15.3565V10.0703H128.853ZM128.853 40.0255H104.522V15.3565H128.853V40.0255Z" fill="white"/>
<path d="M39.4745 100.688H15.1435H9.92969V105.974V130.643V135.929H15.1435H39.4745H44.6883V130.643V105.974V100.688H39.4745ZM39.4745 130.643H15.1435V105.974H39.4745V130.643Z" fill="white"/>
<path d="M34.7559 20.1406H19.8594V35.2441H34.7559V20.1406Z" fill="white"/>
<path d="M124.135 20.1406H109.238V35.2441H124.135V20.1406Z" fill="white"/>
<path d="M34.7559 110.758H19.8594V125.861H34.7559V110.758Z" fill="white"/>
</g>
<defs>
<clipPath id="clip0_990_29819">
<rect width="144" height="146" fill="white"/>
</clipPath>
</defs>
</svg>
