<svg width="24" height="24" viewBox="0 0 24 24" fill="none" xmlns="http://www.w3.org/2000/svg">
<path d="M12 14.25V17.625M8.625 10.875V6.375C8.625 5.47989 8.98058 4.62145 9.61351 3.98851C10.2464 3.35558 11.1049 3 12 3C12.8951 3 13.7536 3.35558 14.3865 3.98851C15.0194 4.62145 15.375 5.47989 15.375 6.375V10.875M6.375 10.875H17.625C17.9234 10.875 18.2095 10.9935 18.4205 11.2045C18.6315 11.4155 18.75 11.7016 18.75 12V19.875C18.75 20.1734 18.6315 20.4595 18.4205 20.6705C18.2095 20.8815 17.9234 21 17.625 21H6.375C6.07663 21 5.79048 20.8815 5.57951 20.6705C5.36853 20.4595 5.25 20.1734 5.25 19.875V12C5.25 11.7016 5.36853 11.4155 5.57951 11.2045C5.79048 10.9935 6.07663 10.875 6.375 10.875Z" stroke="#FDFEFF" stroke-width="2" stroke-linecap="round" stroke-linejoin="round"/>
</svg>
