<svg width="19" height="19" viewBox="0 0 19 19" fill="none" xmlns="http://www.w3.org/2000/svg">
<path d="M7.02703 14.0541C5.06306 14.0541 3.40108 13.3737 2.04108 12.013C0.681081 10.6523 0.000721293 8.99027 5.72001e-07 7.02703C-0.000720149 5.06378 0.67964 3.4018 2.04108 2.04108C3.40252 0.68036 5.0645 0 7.02703 0C8.98955 0 10.6519 0.68036 12.0141 2.04108C13.3762 3.4018 14.0562 5.06378 14.0541 7.02703C14.0541 7.81982 13.9279 8.56757 13.6757 9.27027C13.4234 9.97297 13.0811 10.5946 12.6486 11.1351L18.7027 17.1892C18.9009 17.3874 19 17.6396 19 17.9459C19 18.2523 18.9009 18.5045 18.7027 18.7027C18.5045 18.9009 18.2523 19 17.9459 19C17.6396 19 17.3874 18.9009 17.1892 18.7027L11.1351 12.6486C10.5946 13.0811 9.97297 13.4234 9.27027 13.6757C8.56757 13.9279 7.81982 14.0541 7.02703 14.0541ZM7.02703 11.8919C8.37838 11.8919 9.52721 11.4191 10.4735 10.4735C11.4198 9.52793 11.8926 8.3791 11.8919 7.02703C11.8912 5.67495 11.4184 4.52649 10.4735 3.58162C9.52865 2.63676 8.37982 2.1636 7.02703 2.16216C5.67423 2.16072 4.52577 2.63387 3.58162 3.58162C2.63748 4.52937 2.16432 5.67784 2.16216 7.02703C2.16 8.37622 2.63315 9.52504 3.58162 10.4735C4.53009 11.422 5.67856 11.8948 7.02703 11.8919Z" fill="#939494"/>
</svg>
