<svg width="29" height="29" viewBox="0 0 29 29" fill="none" xmlns="http://www.w3.org/2000/svg">
<g clipPath="url(#clip0_support)">
<path d="M23.0949 13.809C22.8486 13.809 22.6125 13.7111 22.4383 13.537C22.2642 13.3629 22.1663 13.1267 22.1663 12.8804V10.2581C22.1663 6.54383 18.7343 3.5724 14.5149 3.5724C10.2955 3.5724 6.86349 6.58098 6.86349 10.2581V12.8804C6.86349 13.1267 6.76566 13.3629 6.59152 13.537C6.41738 13.7111 6.18119 13.809 5.93492 13.809C5.68865 13.809 5.45246 13.7111 5.27832 13.537C5.10418 13.3629 5.00635 13.1267 5.00635 12.8804V10.2581C5.00635 5.53355 9.27778 1.68555 14.5149 1.68555C19.7521 1.68555 24.0235 5.53355 24.0235 10.2581V12.8804C24.0245 13.0026 24.0011 13.1238 23.9548 13.2369C23.9085 13.35 23.8401 13.4528 23.7537 13.5392C23.6673 13.6256 23.5645 13.694 23.4514 13.7403C23.3383 13.7866 23.2171 13.81 23.0949 13.809Z" fill="currentColor"/>
<path d="M20.5841 22.5455C20.3378 22.5455 20.1016 22.4477 19.9275 22.2736C19.7533 22.0994 19.6555 21.8632 19.6555 21.617V12.7992C19.6632 12.5582 19.7645 12.3295 19.9378 12.1618C20.1111 11.994 20.3429 11.9003 20.5841 11.9004C23.7858 11.9004 26.3932 14.2998 26.3932 17.2415C26.3932 20.1832 23.7858 22.5455 20.5841 22.5455ZM21.5126 13.8244V20.5918C22.3256 20.4572 23.0681 20.0486 23.6167 19.4337C24.1654 18.8189 24.4872 18.0348 24.5286 17.2118C24.4888 16.3875 24.1678 15.6017 23.619 14.9854C23.0702 14.369 22.3268 13.9593 21.5126 13.8244ZM8.41608 22.5455C5.21436 22.5455 2.60693 20.1535 2.60693 17.2118C2.60693 14.2701 5.21436 11.9004 8.41608 11.9004C8.66235 11.9004 8.89853 11.9982 9.07268 12.1724C9.24682 12.3465 9.34465 12.5827 9.34465 12.829V21.617C9.34465 21.8632 9.24682 22.0994 9.07268 22.2736C8.89853 22.4477 8.66235 22.5455 8.41608 22.5455ZM7.48751 13.8244C6.67334 13.9593 5.92996 14.369 5.38118 14.9854C4.8324 15.6017 4.51135 16.3875 4.4715 17.2118C4.513 18.0348 4.83479 18.8189 5.38343 19.4337C5.93206 20.0486 6.67453 20.4572 7.48751 20.5918V13.8244Z" fill="currentColor"/>
<path d="M20.2794 25.5684H17.204C16.9577 25.5684 16.7215 25.4705 16.5474 25.2964C16.3732 25.1223 16.2754 24.8861 16.2754 24.6398C16.2754 24.3935 16.3732 24.1574 16.5474 23.9832C16.7215 23.8091 16.9577 23.7112 17.204 23.7112H20.2794C20.7601 23.7112 21.2211 23.5203 21.5611 23.1803C21.901 22.8404 22.092 22.3794 22.092 21.8987V21.4901C22.092 21.2438 22.1898 21.0076 22.3639 20.8335C22.5381 20.6594 22.7743 20.5615 23.0205 20.5615C23.2668 20.5615 23.503 20.6594 23.6771 20.8335C23.8513 21.0076 23.9491 21.2438 23.9491 21.4901V21.8987C23.9491 22.8719 23.5625 23.8053 22.8743 24.4935C22.1861 25.1818 21.2527 25.5684 20.2794 25.5684Z" fill="currentColor"/>
<path d="M15.6142 27.3144H13.7793C13.1055 27.3144 12.4593 27.0468 11.9829 26.5703C11.5064 26.0939 11.2388 25.4477 11.2388 24.7739V24.6699C11.2407 23.9973 11.5093 23.353 11.9855 22.8782C12.4617 22.4034 13.1068 22.1367 13.7793 22.1367H15.6142C16.286 22.1367 16.9303 22.4036 17.4054 22.8787C17.8805 23.3537 18.1473 23.998 18.1473 24.6699V24.7739C18.1473 25.4464 17.8807 26.0915 17.4059 26.5677C16.931 27.0439 16.2867 27.3125 15.6142 27.3144ZM13.7942 23.9939C13.6142 23.9939 13.4415 24.0648 13.3135 24.1914C13.1856 24.318 13.1127 24.4899 13.1108 24.6699V24.7739C13.1108 24.9551 13.1828 25.129 13.3109 25.2571C13.4391 25.3853 13.6129 25.4573 13.7942 25.4573H15.6142C15.7942 25.4553 15.9661 25.3825 16.0927 25.2545C16.2192 25.1266 16.2902 24.9538 16.2902 24.7739V24.6699C16.2902 24.4906 16.219 24.3186 16.0922 24.1919C15.9654 24.0651 15.7935 23.9939 15.6142 23.9939H13.7942Z" fill="currentColor"/>
</g>
<defs>
<clipPath id="clip0_support"><rect width="26" height="26" fill="white" transform="translate(1.5 1.5)"/></clipPath>
</defs>
</svg>
