<svg width="40" height="40" viewBox="0 0 40 40" fill="none" xmlns="http://www.w3.org/2000/svg">
<g clip-path="url(#clip0_990_29814)">
<path d="M20 0C14.6969 0 9.60625 2.10844 5.85938 5.85781C2.10866 9.6087 0.00107328 14.6956 0 20C0 25.3022 2.10938 30.3928 5.85938 34.1422C9.60625 37.8916 14.6969 40 20 40C25.3031 40 30.3937 37.8916 34.1406 34.1422C37.8906 30.3928 40 25.3022 40 20C40 14.6978 37.8906 9.60719 34.1406 5.85781C30.3937 2.10844 25.3031 0 20 0Z" fill="url(#paint0_linear_990_29814)"/>
<path d="M9.05145 19.7881C14.8827 17.2481 18.7702 15.5735 20.7139 14.7643C26.2702 12.454 27.4233 12.0528 28.1764 12.0392C28.3421 12.0365 28.7108 12.0775 28.9514 12.272C29.1514 12.4361 29.2077 12.6579 29.2358 12.8137C29.2608 12.9693 29.2952 13.324 29.2671 13.6009C28.9671 16.7634 27.6639 24.4378 27.0014 27.98C26.7233 29.4787 26.1702 29.9812 25.6358 30.0303C24.4733 30.1371 23.5921 29.2628 22.4671 28.5256C20.7077 27.3715 19.7139 26.6534 18.0046 25.5275C16.0296 24.2262 17.3108 23.5109 18.4358 22.3421C18.7296 22.0362 23.8483 17.3815 23.9452 16.9593C23.9577 16.9065 23.9702 16.7096 23.8514 16.6059C23.7358 16.5018 23.5639 16.5375 23.4389 16.5656C23.2608 16.6056 20.4514 18.4643 15.0014 22.1415C14.2046 22.6896 13.4827 22.9568 12.8327 22.9428C12.1202 22.9275 10.7452 22.539 9.72332 22.2071C8.47332 21.8 7.47645 21.5846 7.56395 20.8931C7.6077 20.5331 8.10457 20.1646 9.05145 19.7881Z" fill="white"/>
</g>
<defs>
<linearGradient id="paint0_linear_990_29814" x1="2000" y1="0" x2="2000" y2="4000" gradientUnits="userSpaceOnUse">
<stop stop-color="#2AABEE"/>
<stop offset="1" stop-color="#229ED9"/>
</linearGradient>
<clipPath id="clip0_990_29814">
<rect width="40" height="40" fill="white"/>
</clipPath>
</defs>
</svg>
