<svg width="25" height="22" viewBox="0 0 25 22" fill="none" xmlns="http://www.w3.org/2000/svg">
<path fill-rule="evenodd" clip-rule="evenodd" d="M3.40875 4.02734C2.50469 4.02734 1.63766 4.38648 0.9984 5.02574C0.359135 5.66501 0 6.53204 0 7.43609V18.592C0 19.4961 0.359135 20.3631 0.9984 21.0024C1.63766 21.6416 2.50469 22.0008 3.40875 22.0008H20.7624C21.6664 22.0008 22.5335 21.6416 23.1727 21.0024C23.812 20.3631 24.1711 19.4961 24.1711 18.592V7.43609C24.1711 6.53204 23.812 5.66501 23.1727 5.02574C22.5335 4.38648 21.6664 4.02734 20.7624 4.02734H3.40875ZM17.6635 11.4646C17.2526 11.4646 16.8585 11.6279 16.5679 11.9184C16.2773 12.209 16.1141 12.6031 16.1141 13.014C16.1141 13.425 16.2773 13.8191 16.5679 14.1097C16.8585 14.4002 17.2526 14.5635 17.6635 14.5635C18.0745 14.5635 18.4686 14.4002 18.7591 14.1097C19.0497 13.8191 19.213 13.425 19.213 13.014C19.213 12.6031 19.0497 12.209 18.7591 11.9184C18.4686 11.6279 18.0745 11.4646 17.6635 11.4646Z" fill="#FDFEFF"/>
<path d="M17.6452 0.0835994C18.0122 -0.0142027 18.3968 -0.0263698 18.7692 0.048037C19.1417 0.122444 19.492 0.281435 19.7933 0.512739C20.0946 0.744043 20.3386 1.04147 20.5067 1.38208C20.6748 1.72268 20.7623 2.09735 20.7626 2.47716H8.36719L17.6452 0.0835994Z" fill="#FDFEFF"/>
</svg>
