<svg width="35" height="30" viewBox="0 0 35 30" fill="none" xmlns="http://www.w3.org/2000/svg">
<path d="M1.64649 30C1.34093 30 1.06316 29.9239 0.813157 29.7717C0.563157 29.6194 0.368713 29.4178 0.229824 29.1667C0.0909351 28.9156 0.014824 28.6444 0.00149068 28.3533C-0.0118426 28.0622 0.0642684 27.7778 0.229824 27.5L15.6465 0.833333C15.8132 0.555555 16.0287 0.347222 16.2932 0.208333C16.5576 0.0694444 16.8282 0 17.1048 0C17.3815 0 17.6526 0.0694444 17.9182 0.208333C18.1837 0.347222 18.3987 0.555555 18.5632 0.833333L33.9798 27.5C34.1465 27.7778 34.2232 28.0628 34.2098 28.355C34.1965 28.6472 34.1198 28.9178 33.9798 29.1667C33.8398 29.4156 33.6454 29.6172 33.3965 29.7717C33.1476 29.9261 32.8698 30.0022 32.5632 30H1.64649ZM17.1048 25C17.577 25 17.9732 24.84 18.2932 24.52C18.6132 24.2 18.7726 23.8044 18.7715 23.3333C18.7704 22.8622 18.6104 22.4667 18.2915 22.1467C17.9726 21.8267 17.577 21.6667 17.1048 21.6667C16.6326 21.6667 16.237 21.8267 15.9182 22.1467C15.5993 22.4667 15.4393 22.8622 15.4382 23.3333C15.437 23.8044 15.597 24.2006 15.9182 24.5217C16.2393 24.8428 16.6348 25.0022 17.1048 25ZM17.1048 20C17.577 20 17.9732 19.84 18.2932 19.52C18.6132 19.2 18.7726 18.8044 18.7715 18.3333V13.3333C18.7715 12.8611 18.6115 12.4656 18.2915 12.1467C17.9715 11.8278 17.5759 11.6678 17.1048 11.6667C16.6337 11.6656 16.2382 11.8256 15.9182 12.1467C15.5982 12.4678 15.4382 12.8633 15.4382 13.3333V18.3333C15.4382 18.8056 15.5982 19.2017 15.9182 19.5217C16.2382 19.8417 16.6337 20.0011 17.1048 20Z" fill="#EBA535"/>
</svg>
