<svg width="40" height="40" viewBox="0 0 40 40" fill="none" xmlns="http://www.w3.org/2000/svg">
<circle cx="20" cy="20" r="20" fill="#FDFEFF"/>
<path d="M28.125 11C29.2296 11 30.125 11.8954 30.125 13V27C30.125 28.1046 29.2296 29 28.125 29H11.875C10.7704 29 9.875 28.1046 9.875 27V13C9.875 11.8954 10.7704 11 11.875 11H28.125ZM12.1445 17.2539V20H27.7305V17.2539H12.1445ZM13.4131 12.9531C12.7129 12.9533 12.1447 13.5215 12.1445 14.2217C12.1446 14.9219 12.7129 15.4891 13.4131 15.4893C14.1133 15.4891 14.6806 14.9219 14.6807 14.2217C14.6805 13.5215 14.1133 12.9532 13.4131 12.9531ZM17.2871 12.9531C16.587 12.9533 16.0187 13.5215 16.0186 14.2217C16.0187 14.9219 16.5869 15.4891 17.2871 15.4893C17.9872 15.489 18.5546 14.9218 18.5547 14.2217C18.5546 13.5216 17.9872 12.9534 17.2871 12.9531ZM21.1602 12.9531C20.4601 12.9534 19.8927 13.5216 19.8926 14.2217C19.8927 14.9218 20.4601 15.489 21.1602 15.4893C21.8604 15.4893 22.4286 14.9219 22.4287 14.2217C22.4286 13.5214 21.8604 12.9531 21.1602 12.9531Z" fill="#1A1A1A"/>
</svg>
