<svg width="18" height="16" viewBox="0 0 18 16" fill="none" xmlns="http://www.w3.org/2000/svg">
<path d="M16 0C17.1046 0 18 0.895431 18 2V14C18 15.1046 17.1046 16 16 16H2C0.895431 16 0 15.1046 0 14V2C0 0.895431 0.895431 8.05319e-09 2 0H16ZM2.01758 5.55957V8H15.8711V5.55957H2.01758ZM3.14453 1.73633C2.52211 1.73646 2.01758 2.24181 2.01758 2.86426C2.01784 3.48649 2.52227 3.99108 3.14453 3.99121C3.7669 3.99121 4.2722 3.48657 4.27246 2.86426C4.27246 2.24172 3.76707 1.73633 3.14453 1.73633ZM6.58789 1.73633C5.96547 1.73646 5.46094 2.24181 5.46094 2.86426C5.4612 3.48649 5.96563 3.99108 6.58789 3.99121C7.21026 3.99121 7.71556 3.48657 7.71582 2.86426C7.71582 2.24172 7.21042 1.73633 6.58789 1.73633ZM10.0312 1.73633C9.40883 1.73646 8.9043 2.24181 8.9043 2.86426C8.90456 3.48649 9.40899 3.99108 10.0312 3.99121C10.6536 3.99121 11.1589 3.48657 11.1592 2.86426C11.1592 2.24172 10.6538 1.73633 10.0312 1.73633Z" fill="#FDFEFF"/>
</svg>
