<svg width="137" height="60" viewBox="0 0 137 60" fill="none" xmlns="http://www.w3.org/2000/svg">
<g clip-path="url(#clip0_963_21514)">
<path d="M136.5 3.734V0L-1.52588e-05 0V3.734L136.5 3.734Z" fill="#FEFFFF"/>
<path d="M136.5 59.5504V55.8164L0 55.8164V59.5504L136.5 59.5504Z" fill="#FEFFFF"/>
<path d="M109.83 16.5703V42.9329H106.096V29.252L103.292 42.9329H99.5579L96.7458 29.252L96.7535 42.9329H93.0195V16.5703H96.7535L101.425 34.4734L106.096 16.5703H109.83Z" fill="#FEFFFF"/>
<path d="M116.199 20.3043V27.8808H123.458V31.6225H116.199V39.1989H123.458V42.9329H112.473V16.5703H123.458V20.3043H116.199Z" fill="#FEFFFF"/>
<path d="M69.3859 35.3344V35.3654C70.2304 45.6842 55.9064 45.3433 56.7508 35.3344H60.4848C59.2918 40.2304 66.0703 40.4938 65.6365 36.0161C65.6519 31.1975 57.4867 29.47 56.8437 24.2176C55.612 14.1157 70.2768 13.922 69.3859 24.2176H65.6365C66.7598 19.3758 60.0974 18.9575 60.5545 23.5669C60.8799 26.8438 69.3782 29.4235 69.3859 35.3266V35.3344Z" fill="#FEFFFF"/>
<path d="M26.0965 16.5703V20.3043H21.4407V42.9174H17.7067V20.3043H13.0508V16.5703H26.0965Z" fill="#FEFFFF"/>
<path d="M85.1122 16.5703V20.3043H80.4563V42.9174H76.7223V20.3043H72.0664V16.5703H85.1122Z" fill="#FEFFFF"/>
<path d="M40.4651 42.9174C40.4651 42.4836 40.4651 41.9336 40.4651 40.7251V31.9479C40.4651 30.7316 39.6904 29.7478 38.4819 29.7478L37.3818 29.7245C39.2024 29.7245 40.4651 28.2681 40.4651 26.4476V19.8627C40.4651 18.0422 38.9932 16.5703 37.1727 16.5703H28.7363V42.9174H32.4703V31.607H34.5387C35.755 31.607 36.7311 32.5831 36.7311 33.7994V42.9174H40.4651ZM32.4703 20.3043H34.5465C35.7473 20.3043 36.7311 21.2804 36.7311 22.4889V25.6806C36.7311 26.8969 35.7395 27.8808 34.531 27.8808H32.4703V20.3043Z" fill="#FEFFFF"/>
<path d="M54.079 16.5703V37.7658C54.0247 41.3603 51.8556 42.9174 48.5942 42.9174C45.3327 42.9174 43.1094 40.6941 43.1094 37.7813V16.5703H46.8434V37.4327C46.8434 38.401 47.6336 39.1912 48.6019 39.1912C49.5703 39.1912 50.3605 38.401 50.3605 37.4327V16.5703H54.0944H54.079Z" fill="#FEFFFF"/>
</g>
<defs>
<clipPath id="clip0_963_21514">
<rect width="136.5" height="59.5503" fill="white"/>
</clipPath>
</defs>
</svg>
